<?xml version="1.0" encoding="UTF-8" standalone="no"?>
<svg
   height="16"
   viewBox="0 0 16 16"
   width="16"
   version="1.1"
   id="svg184"
   sodipodi:docname="signal_receiver_node_b.svg"
   xml:space="preserve"
   inkscape:version="1.4 (86a8ad7, 2024-10-11)"
   xmlns:inkscape="http://www.inkscape.org/namespaces/inkscape"
   xmlns:sodipodi="http://sodipodi.sourceforge.net/DTD/sodipodi-0.dtd"
   xmlns="http://www.w3.org/2000/svg"
   xmlns:svg="http://www.w3.org/2000/svg"><defs
     id="defs188" /><sodipodi:namedview
     id="namedview186"
     pagecolor="#505050"
     bordercolor="#eeeeee"
     borderopacity="1"
     inkscape:showpageshadow="0"
     inkscape:pageopacity="0"
     inkscape:pagecheckerboard="0"
     inkscape:deskcolor="#505050"
     showgrid="false"
     inkscape:zoom="34.250485"
     inkscape:cx="7.79551"
     inkscape:cy="8.5108284"
     inkscape:window-width="1280"
     inkscape:window-height="961"
     inkscape:window-x="-8"
     inkscape:window-y="-8"
     inkscape:window-maximized="1"
     inkscape:current-layer="svg184" /><path
     d="M 7.7308435,1.9280065 5.6095235,4.049327 4.4086875,1.9172832 2.1122241,4.357422 4.1953095,5.46354 2.073989,7.584861 5.2559695,7.938414 8.4379505,8.291967 8.0843965,5.109987 Z"
     fill="#ff5f5f"
     id="path5254"
     style="fill:#414141;fill-opacity:1"
     sodipodi:nodetypes="cccccccccc" /><ellipse
     style="display:inline;fill:#414141;fill-opacity:1;fill-rule:evenodd"
     id="path1"
     ry="1.9999998"
     rx="2.0000012"
     cy="2.3795576"
     cx="2.467149" /><path
     d="M 11.605354,5.5776496 H 9.5819117 A 4.0090322,4.0090322 0 0 1 5.5721461,9.5874157 V 11.610856 A 6.032258,6.032258 0 0 0 11.605354,5.5776496 Z"
     style="fill:#414141;fill-opacity:1;fill-rule:evenodd"
     id="path5" /><path
     d="M 15.60926,5.5776496 H 13.585823 A 8.0141935,8.0141935 0 0 1 5.5721461,13.591325 v 2.023437 A 10.037418,10.037418 0 0 0 15.60926,5.5776496 Z"
     style="fill:#414141;fill-opacity:1;fill-rule:evenodd"
     id="path8"
     inkscape:transform-center-x="-0.041290323"
     inkscape:transform-center-y="-0.041290323" /></svg>
