<?xml version="1.0" encoding="UTF-8" standalone="no"?>
<svg
   height="16"
   viewBox="0 0 16 16"
   width="16"
   version="1.1"
   id="svg184"
   sodipodi:docname="signal_emitter_node_b.svg"
   xml:space="preserve"
   inkscape:version="1.4 (86a8ad7, 2024-10-11)"
   xmlns:inkscape="http://www.inkscape.org/namespaces/inkscape"
   xmlns:sodipodi="http://sodipodi.sourceforge.net/DTD/sodipodi-0.dtd"
   xmlns="http://www.w3.org/2000/svg"
   xmlns:svg="http://www.w3.org/2000/svg"><defs
     id="defs188" /><sodipodi:namedview
     id="namedview186"
     pagecolor="#505050"
     bordercolor="#eeeeee"
     borderopacity="1"
     inkscape:showpageshadow="0"
     inkscape:pageopacity="0"
     inkscape:pagecheckerboard="0"
     inkscape:deskcolor="#505050"
     showgrid="false"
     inkscape:zoom="24.21875"
     inkscape:cx="7.8451613"
     inkscape:cy="8.1548387"
     inkscape:window-width="1280"
     inkscape:window-height="961"
     inkscape:window-x="-8"
     inkscape:window-y="-8"
     inkscape:window-maximized="1"
     inkscape:current-layer="svg184" /><path
     d="M 8.7071065,1.6360392 10.828427,3.7573595 8.6963832,4.9581951 11.136522,7.2546585 12.24264,5.1715732 14.363961,7.2928936 14.717514,4.110913 15.071067,0.92893235 11.889087,1.2824858 Z"
     fill="#ff5f5f"
     id="path5254"
     style="fill:#414141;fill-opacity:1"
     sodipodi:nodetypes="cccccccccc" /><ellipse
     style="display:inline;fill:#414141;fill-rule:evenodd;fill-opacity:1"
     id="path1"
     ry="1.9999998"
     rx="2.0000012"
     cy="13.299355"
     cx="3.1341944" /><path
     d="m 3.1244283,7.2661519 v 2.0234375 a 4.0090322,4.0090322 0 0 1 4.009766,4.0097656 h 2.023437 A 6.032258,6.032258 0 0 0 3.1244283,7.2661519 Z"
     style="fill:#414141;fill-rule:evenodd;fill-opacity:1"
     id="path5" /><path
     d="m 3.1341943,3.2759177 v 2.0234371 a 8.0141935,8.0141935 0 0 1 8.0136717,8.0136722 h 2.023437 A 10.037418,10.037418 0 0 0 3.1341943,3.2759177 Z"
     style="fill:#414141;fill-rule:evenodd;fill-opacity:1"
     id="path8" /></svg>
