<?xml version="1.0" encoding="UTF-8" standalone="no"?>
<svg
   height="16"
   viewBox="0 0 16 16"
   width="16"
   version="1.1"
   id="svg184"
   sodipodi:docname="signal_base_node.svg"
   xml:space="preserve"
   inkscape:version="1.4 (86a8ad7, 2024-10-11)"
   xmlns:inkscape="http://www.inkscape.org/namespaces/inkscape"
   xmlns:sodipodi="http://sodipodi.sourceforge.net/DTD/sodipodi-0.dtd"
   xmlns="http://www.w3.org/2000/svg"
   xmlns:svg="http://www.w3.org/2000/svg"><defs
     id="defs188" /><sodipodi:namedview
     id="namedview186"
     pagecolor="#505050"
     bordercolor="#eeeeee"
     borderopacity="1"
     inkscape:showpageshadow="0"
     inkscape:pageopacity="0"
     inkscape:pagecheckerboard="0"
     inkscape:deskcolor="#505050"
     showgrid="false"
     inkscape:zoom="34.250485"
     inkscape:cx="7.7955101"
     inkscape:cy="8.4816318"
     inkscape:window-width="1280"
     inkscape:window-height="961"
     inkscape:window-x="-8"
     inkscape:window-y="-8"
     inkscape:window-maximized="1"
     inkscape:current-layer="svg184" /><ellipse
     style="display:inline;fill:#ffffff;fill-opacity:1;fill-rule:evenodd"
     id="path1"
     ry="1.9999998"
     rx="2.0000012"
     cy="8.1026907"
     cx="7.9855604" /><path
     d="M 11.20512,3.831788 9.7743182,5.2625778 a 4.0090322,4.0090322 0 0 1 0,5.6706662 l 1.4308008,1.430788 a 6.032258,6.032258 0 0 0 1e-6,-8.532244 z"
     style="fill:#ffffff;fill-opacity:1;fill-rule:evenodd"
     id="path5" /><path
     d="m 4.8040439,12.342494 1.43079,-1.43079 a 4.0090322,4.0090322 0 0 1 0,-5.6706662 L 4.8040449,3.8102501 a 6.032258,6.032258 0 0 0 -1e-6,8.5322439 z"
     style="fill:#ffffff;fill-opacity:1;fill-rule:evenodd"
     id="path5-9" /><path
     d="m 13.074955,1.0292722 -1.430794,1.4307861 a 8.0141935,8.0141935 0 0 1 0,11.3330497 l 1.430794,1.430786 a 10.037418,10.037418 0 0 0 0,-14.1946218 z"
     style="fill:#ffffff;fill-opacity:1;fill-rule:evenodd"
     id="path8"
     inkscape:transform-center-x="-0.75444489"
     inkscape:transform-center-y="-0.058393523" /><path
     d="m 2.9542458,15.107031 1.430786,-1.430786 a 8.0141935,8.0141935 0 0 1 0,-11.3330496 L 2.9542458,0.91241034 a 10.037418,10.037418 0 0 0 0,14.19462066 z"
     style="fill:#ffffff;fill-opacity:1;fill-rule:evenodd"
     id="path8-0"
     inkscape:transform-center-x="0.75444445"
     inkscape:transform-center-y="0.058393477" /></svg>
